# xmcd
#
# Track frame offsets:
#	150
#	13381
#	25687
#	41378
#	59779
#	75055
#	88211
#	101503
#	113549
#	126193
#	141414
#	158465
#	173735
#	190071
#	204532
#
# Disc length: 2849 seconds
#
# Revision: 0
# Processed by: cddbd v1.5.2PL0 Copyright (c) Steve Scherf et al.
# Submitted via: audiograbber 1.83.01
#
DISCID=bc0b1f0f
DTITLE=Diverse - Women of Country
DYEAR=2008
DGENRE=Country
TTITLE0=Lynn Anderson - Rose Garden
TTITLE1=Dolly Parton - Making Believe
TTITLE2=Billie Jo Spears - Blanket To The Ground
TTITLE3=Linda Gail Lewis - I Don't Want To Be Lonely Tonight
TTITLE4=Billie Davis - Angel Of The Morning
TTITLE5=Connie Francis - That' ll Be The Day
TTITLE6=Billie Jo Spears - What I've Got In Mind
TTITLE7=Barbara Fairchild - Cheatin' Is
TTITLE8=Lynn Anderson - Stand By Your Man
TTITLE9=Connie Francis - Raining In My Heart
TTITLE10=Lynn Anderson - Blue Bayou
TTITLE11=Billie Jo Spears - Sing Me An Old Fashioned Song
TTITLE12=Lynn Anderson - Devil Went To Georgia
TTITLE13=Billie Jo Spears - I Will Survive
TTITLE14=Linda Gail Lewis - Lonely Heart
EXTD=
EXTT0=
EXTT1=
EXTT2=
EXTT3=
EXTT4=
EXTT5=
EXTT6=
EXTT7=
EXTT8=
EXTT9=
EXTT10=
EXTT11=
EXTT12=
EXTT13=
EXTT14=
PLAYORDER=
